# xmcd CD database file
# Copyright (C) 1997 Ti Kan
#
# Track frame offsets:
#  155
#  14047
#  26317
#  38592
#  49280
#  59425
#  70852
#  86195
#  99037
#  109917
#  123120
#  133130
#  149777
#  165695
#  178062
#  188875
#  199792
#  217740
#  232877
#  254187
#  271265
#  286865
#
# Disc length: 4015 seconds
#
# Revision: 2
# Processed by: cddbd v1.4PL0 Copyright (c) Steve Scherf et al.
# Submitted via: Gronk 1.4
#
DISCID=460fad16
DTITLE=Alvin Crow - Honky Tonk Trail
DYEAR=1900
DGENRE=country
TTITLE0=Honky Tonk Trail
TTITLE1=Too Country
TTITLE2=Dance With Who Brung You
TTITLE3=Go Down Swinging
TTITLE4=Red Neck Rock
TTITLE5=Real Thing
TTITLE6=Sweetwater Waltz
TTITLE7=About That Time Again
TTITLE8=Be My Mamma Again
TTITLE9=The Way It Is
TTITLE10=Fiddler's Lady
TTITLE11=Wine Me Up
TTITLE12=Living on Memories
TTITLE13=Dynamite Diana
TTITLE14=Sands of Texas
TTITLE15=One Foot in the Grave
TTITLE16=Broken Spoke Legend
TTITLE17=Big Ball's in Cowtown
TTITLE18=Faded Love
TTITLE19=Bring It on Down to My House
TTITLE20=You Send Me
TTITLE21=So Long
EXTD=
EXTT0=
EXTT1=
EXTT2=
EXTT3=
EXTT4=
EXTT5=
EXTT6=
EXTT7=
EXTT8=
EXTT9=
EXTT10=
EXTT11=
EXTT12=
EXTT13=
EXTT14=
EXTT15=
EXTT16=
EXTT17=
EXTT18=
EXTT19=
EXTT20=
EXTT21=
PLAYORDER=
